<svg xmlns="http://www.w3.org/2000/svg" enable-background="new 0 0 24 24" viewBox="0 0 24 24" id="jewelry"><g><path fill="#e1e1ff" d="M8.57,12c-0.01,0.01-0.01,0.03-0.01,0.04V12H8.57z"></path><path fill="#e1e1ff" d="M8.56,12v0.04c0-0.01,0-0.03,0.01-0.04H8.56z"></path><path fill="#e1e1ff" d="M15.52,12.05v0.01c0,0.04,0,0.09-0.01,0.13c0,0.03-0.01,0.07-0.02,0.1c0,0.01-0.01,0.03-0.01,0.04
			l-0.02,0.05l-0.18,0.68l-0.78,2.75l-0.26,0.92l-0.67,2.37v0.01l-0.61,2.16c-0.02,0.05-0.03,0.11-0.06,0.15
			c-0.02,0.05-0.05,0.1-0.08,0.15c-0.01,0.02-0.03,0.05-0.05,0.07c-0.02,0.02-0.03,0.03-0.05,0.05c-0.03,0.03-0.05,0.06-0.09,0.08
			c-0.05,0.04-0.1,0.08-0.16,0.11L12.46,21.89c-0.01,0-0.02,0.0099-0.04,0.02c-0.06,0.02-0.12,0.05-0.19,0.06
			c-0.01,0.01-0.01,0.01-0.02,0.01C12.14,21.99,12.07,22,12,22s-0.14-0.01-0.21-0.02c-0.0099,0-0.02-0.01-0.03-0.01
			c-0.06-0.01-0.12-0.03-0.17-0.06c-0.02-0.01-0.04-0.01-0.05-0.02c-0.0099,0-0.0099-0.01-0.0099-0.01c-0.01,0-0.02-0.01-0.02-0.01
			c-0.07-0.03-0.13-0.08-0.18-0.13c-0.01-0.01-0.02-0.01-0.03-0.02s-0.02-0.03-0.03-0.04l-0.03-0.03c-0.02-0.03-0.04-0.05-0.07-0.09
			c-0.01-0.02-0.02-0.04-0.03-0.06c-0.04-0.06-0.07-0.13-0.09-0.2c0-0.01-0.01-0.03-0.01-0.04v-0.01l-0.03-0.13l-0.55-1.98
			l-0.04-0.15l-0.6-2.19l-1.03-3.74l-0.2-0.74c0-0.01-0.01-0.03-0.01-0.04c-0.01-0.07-0.02-0.14-0.02-0.2c0-0.0099,0-0.02,0-0.02
			c0-0.01,0-0.01,0-0.02s0-0.03,0.01-0.04h6.94C15.52,12.02,15.52,12.03,15.52,12.05z"></path><path fill="#8e8eef" d="M8.56,12v0.04c0-0.01,0-0.03,0.01-0.04H8.56z"></path><path fill="#e1e1ff" d="M10.37,7C9.89,7,9.48,7.34,9.39,7.8L9.35,8l-0.2,1l-0.41,2.06l-0.16,0.8c0,0.01-0.01,0.03-0.01,0.05
		c0,0.03-0.01,0.06-0.01,0.09H4.01C4,11.5,4.13,11.03,4.38,10.62l1.17-1.95C6.17,7.64,7.3,7,8.5,7H10.37z"></path><path fill="#b6b6ff" d="M11.17,21.56L9.38,19.4l-4.84-5.83c-0.32-0.46-0.49-0.92-0.52-1.38c-0.01-0.03-0.01-0.07-0.01-0.1V12h4.55
		v0.04c0,0.01,0,0.01,0,0.02c0,0,0,0.01,0,0.02c0,0.0601,0.01,0.13,0.02,0.2c0,0.01,0.01,0.03,0.01,0.04l0.2,0.74l1.03,3.74
		l0.6,2.19l0.04,0.15l0.55,1.98l0.03,0.13v0.01c0,0.0099,0.01,0.03,0.01,0.04c0.02,0.07,0.05,0.14,0.09,0.2
		C11.15,21.52,11.16,21.54,11.17,21.56z"></path><path fill="#e1e1ff" d="M15.52,12v0.05c0-0.02,0-0.03-0.01-0.05H15.52z"></path><path fill="#e1e1ff" d="M15.51 12c.01.02.01.03.01.05V12H15.51zM19.99 12h-4.47c0-.06-.01-.11-.03-.17 0-.03-.01-.06-.02-.09l-.16-.68L14.84 9 14.6 8l-.05-.23C14.45 7.32 14.05 7 13.58 7h1.92c.53 0 1.04.12 1.5.36.59.28 1.1.74 1.45 1.32l1.17 1.94C19.87 11.03 20 11.5 19.99 12z"></path><path fill="#b6b6ff" d="M15.51,12c0.01,0.02,0.01,0.03,0.01,0.05V12H15.51z"></path><path fill="#b6b6ff" d="M19.99 12v.09c0 .03 0 .07-.01.1 0 .04-.01.08-.02.12-.04.42-.2.83-.45 1.19l-6.69 8.07c.03-.05.06-.1.08-.15.03-.04.04-.1.06-.15l.61-2.16V19.1l.67-2.37.26-.92.78-2.75.18-.68.02-.05c0-.0099.01-.03.01-.04.01-.03.02-.07.02-.1.01-.04.01-.09.01-.13V12H19.99zM15.52 12H8.56c0-.03.01-.06.01-.09 0-.02.01-.04.01-.05l.16-.8L9.15 9l.2-1 .04-.2C9.48 7.34 9.89 7 10.37 7h3.21c.47 0 .87.32.97.77L14.6 8 14.84 9l.47 2.06.16.68c.01.03.02.06.02.09C15.51 11.89 15.52 11.94 15.52 12z"></path><path d="M8.56,12v0.04c0-0.01,0-0.03,0.01-0.04H8.56z M15.51,12c0.01,0.02,0.01,0.03,0.01,0.05V12H15.51z"></path><g><path fill="#b6b6ff" d="M12,5c-0.5527,0-1-0.4473-1-1V3c0-0.5527,0.4473-1,1-1s1,0.4473,1,1v1C13,4.5527,12.5527,5,12,5z"></path></g><g><path fill="#b6b6ff" d="M18.71,4.71l-1,1C17.51,5.9,17.26,6,17,6s-0.51-0.1-0.71-0.29c-0.39-0.39-0.39-1.03,0-1.42l1-1
			c0.39-0.39,1.03-0.39,1.42,0C19.1,3.68,19.1,4.32,18.71,4.71z"></path></g><g><path fill="#b6b6ff" d="M7,6C6.7441,6,6.4883,5.9023,6.293,5.707l-1-1c-0.3906-0.3906-0.3906-1.0234,0-1.4141
			s1.0234-0.3906,1.4141,0l1,1c0.3906,0.3906,0.3906,1.0234,0,1.4141C7.5117,5.9023,7.2559,6,7,6z"></path></g><path d="M17.71 5.71C17.51 5.9 17.26 6 17 6V3.58l.29-.29c.39-.39 1.03-.39 1.42 0 .39.39.39 1.03 0 1.42L17.71 5.71zM19.99 12v.09c0 .03 0 .07-.01.1 0 .04-.01.08-.02.12-.04.42-.2.83-.45 1.19l-6.69 8.07c-.01.02-.03.05-.05.07-.02.02-.03.03-.05.05-.03.03-.05.06-.09.08-.05.04-.1.08-.16.11L12.46 21.89c-.01 0-.02.0099-.04.02-.06.02-.12.05-.19.06-.01.01-.01.01-.02.01C12.14 21.99 12.07 22 12 22s-.14-.01-.21-.02c-.0099 0-.02-.01-.03-.01-.06-.01-.12-.03-.17-.06-.02-.01-.04-.01-.05-.02-.0099 0-.0099-.01-.0099-.01-.01 0-.02-.01-.02-.01-.07-.03-.13-.08-.18-.13-.01-.01-.02-.01-.03-.02s-.02-.03-.03-.04l-.03-.03c-.02-.03-.04-.05-.07-.09L9.38 19.4c.35-.12.7-.2599 1.04-.41 1.6-.73 2.99-1.83 4.08-3.18.91-1.11 1.6-2.4 2.02-3.81C16.83 10.97 17 9.88 17 8.75V7.36c.59.28 1.1.74 1.45 1.32l1.17 1.94C19.87 11.03 20 11.5 19.99 12z" opacity=".11"></path></g></svg>