<svg xmlns="http://www.w3.org/2000/svg" enable-background="new 0 0 64 64" viewBox="0 0 64 64" id="dog-collar"><path fill="#e83b3b" d="M32,2.5c-16.569,0-30,4.925-30,11c0,2.447,2.182,4.707,5.868,6.534c2.545-2.927,7.523-5.278,13.771-6.534
		c3.176-0.639,6.674-1,10.361-1s7.185,0.361,10.361,1c6.248,1.257,11.226,3.607,13.771,6.534C59.818,18.207,62,15.947,62,13.5
		C62,7.425,48.569,2.5,32,2.5z"></path><path fill="#e83b3b" d="M7.868,20.034C4.182,18.207,2,15.947,2,13.5l0.036,13c0.47,3.511,5.876,6.565,13.835,8.346
		C14.721,33.753,14,32.212,14,30.5c0-3.314,2.686-6,6-6h4v-0.411C18.43,23.554,12.913,22.4,7.868,20.034z"></path><path fill="#e83b3b" d="M20 36.5h4v-12h-4c-3.314 0-6 2.686-6 6v0C14 33.814 16.686 36.5 20 36.5zM56.132 20.034C51.086 22.4 45.57 23.565 40 24.101c-2.657.255-5.339.368-8 .399h-4v4h4c1.105 0 2 .895 2 2 0 1.105-.895 2-2 2h-4v4h4c2.69-.001 5.372-.127 8-.381 12.242-1.183 21.346-5.012 21.964-9.619L62 13.5C62 15.947 59.818 18.207 56.132 20.034z"></path><path fill="#fbff86" d="M32,24.5c2.649-0.029,5.33-0.143,8-0.399v-0.535c0-1.693-1.373-3.066-3.066-3.066h-10.76
		C24.974,20.5,24,21.473,24,22.674v15.651c0,1.201,0.974,2.174,2.174,2.174h10.76c1.693,0,3.066-1.373,3.066-3.066v-1.315
		c-2.548,0.246-5.228,0.381-8,0.381h-4v-4h4c1.105,0,2-0.895,2-2c0-1.105-0.895-2-2-2h-4v-4H32z"></path><circle cx="32" cy="52.5" r="9" fill="#fbff86"></circle><circle cx="51.5" cy="27.8" r="1.5" fill="#e83b3b"></circle><circle cx="45.5" cy="29.1" r="1.5" fill="#e83b3b"></circle><circle cx="39.5" cy="30.1" r="1.5" fill="#e83b3b"></circle><path fill="#fbb954" d="M36,55c0-1.635-1.425-4-4-4s-4,2.365-4,4c-0.007,0.351-0.021,1.04,0.37,1.748
		c0.617,1.113,1.94,1.752,3.63,1.752s3.013-0.639,3.63-1.752C36.021,56.04,36.007,55.351,36,55z"></path><circle cx="27" cy="51" r="1.5" fill="#fbb954"></circle><circle cx="30" cy="48.5" r="1.5" fill="#fbb954"></circle><circle cx="37" cy="51" r="1.5" fill="#fbb954"></circle><circle cx="34" cy="48.5" r="1.5" fill="#fbb954"></circle><path fill="#fbff86" d="M32,43.5c0.338,0,0.671,0.022,1,0.059V40.5h-2v3.059C31.329,43.522,31.662,43.5,32,43.5z"></path><g><circle cx="51.5" cy="27.8" r="1.5" fill="#d72c2f"></circle><circle cx="45.5" cy="29.1" r="1.5" fill="#d72c2f"></circle><circle cx="39.5" cy="30.1" r="1.5" fill="#d72c2f"></circle><path fill="#d72c2f" d="M32 2.5c-16.569 0-30 4.925-30 11 0 2.447 2.182 4.707 5.868 6.534 2.545-2.927 7.523-5.278 13.771-6.534 3.176-.639 6.674-1 10.361-1s7.185.361 10.361 1c6.248 1.257 11.226 3.607 13.771 6.534C59.818 18.207 62 15.947 62 13.5 62 7.425 48.569 2.5 32 2.5zM15.024 22.56c-1.939 1.053-3.422 2.813-4.024 4.94-.599 2.117-.256 4.365.814 6.256 1.26.401 2.615.767 4.057 1.09C14.721 33.753 14 32.212 14 30.5c0-3.314 2.686-6 6-6h4v-.411C20.969 23.798 17.956 23.313 15.024 22.56z"></path><path fill="#faea6b" d="M36.934 40.5c1.693 0 3.066-1.373 3.066-3.066v-1.315c-1.3.126-2.636.22-4 .285V40.5H36.934zM40 24.101v-.535c0-1.693-1.373-3.066-3.066-3.066H36v3.885C37.333 24.321 38.668 24.229 40 24.101z"></path></g><g><path fill="#211f1b" d="M32,1.5c-17.383,0-31,5.271-31,12v13c0,3.751,5.987,7.338,14.397,9.26c1.232,1.08,2.84,1.74,4.603,1.74h3
		v0.825c0,1.751,1.424,3.175,3.175,3.175H31v1.051c-5.046,0.504-9,4.773-9,9.949c0,5.514,4.486,10,10,10s10-4.486,10-10
		c0-5.176-3.954-9.446-9-9.949V41.5h3.935c2.241,0,4.065-1.824,4.065-4.065v-0.421c12.456-1.347,22-5.507,22-10.513v-13
		C63,6.771,49.383,1.5,32,1.5z M40,52.5c0,4.411-3.589,8-8,8s-8-3.589-8-8s3.589-8,8-8S40,48.089,40,52.5z M32,3.5
		c17.347,0,29,5.171,29,10c-0.153,2.551-2.629,4.146-4.662,5.29c-3.741-3.552-8.813-5.217-13.779-6.27
		c-6.73-1.353-14.387-1.353-21.117,0c-4.966,1.053-10.039,2.719-13.779,6.27c-1.889-1.049-3.954-2.407-4.578-4.584
		C3.03,13.97,3,13.734,3,13.5C3,8.671,14.653,3.5,32,3.5z M53.6,20.028c-1.711,0.681-3.476,1.221-5.265,1.676
		c-2.356,0.588-4.918,1.019-7.377,1.283c-0.157-0.898-0.575-1.745-1.244-2.372c-0.749-0.699-1.75-1.111-2.78-1.115h-10.76
		C24.424,19.5,23,20.924,23,22.674v0.297c-3.387-0.378-6.464-0.969-9.265-1.796c-1.404-0.422-2.783-0.898-4.126-1.47
		c0,0,0,0,0.001-0.001c3.43-2.9,7.878-4.299,12.227-5.224c6.471-1.301,13.857-1.301,20.328,0c3.969,0.833,7.962,2.085,11.27,4.461
		c0.34,0.249,0.663,0.502,0.958,0.763C54.133,19.823,53.866,19.923,53.6,20.028z M3,26.236v-8.363
		c1.296,1.274,2.8,2.251,4.443,3.066c3.102,1.437,6.367,2.454,9.728,3.159c-1.476,0.672-2.725,1.835-3.437,3.299
		c-0.908,1.78-0.972,4.014-0.182,5.836C7.333,31.493,3,28.721,3,26.236z M20,35.5c-1.349,0-2.57-0.543-3.471-1.414
		C15.568,33.138,15.023,31.86,15,30.5c0-2.757,2.243-5,5-5h3v10H20z M39,37.435c0,1.139-0.927,2.065-2.065,2.065h-10.76
		C25.527,39.5,25,38.973,25,38.325V22.674c0-0.647,0.527-1.174,1.175-1.174h10.76c0.967-0.006,1.855,0.734,2.027,1.684
		c-1.037,0.092-2.07,0.153-3.118,0.206l0,0c-1.284,0.06-2.581,0.097-3.848,0.11H28c-0.553,0-1,0.447-1,1v4c0,0.553,0.447,1,1,1h4
		c0.552,0,1,0.448,1,1s-0.448,1-1,1h-4c-0.553,0-1,0.447-1,1v4c0,0.553,0.447,1,1,1h4c2.287,0.003,4.697-0.121,7-0.287V37.435z
		 M61,17.873v8.36c0,3.654-9.417,7.762-21.096,8.891C37.313,35.374,34.598,35.5,32,35.5h-3v-2h3c1.654,0,3-1.346,3-3s-1.346-3-3-3
		h-3v-2h3c2.789-0.034,5.381-0.147,8.096-0.404c6.431-0.617,11.814-1.978,16.461-4.156C58.199,20.125,59.704,19.148,61,17.873z"></path><path fill="#211f1b" d="M32,51c-2.575,0-4,2.365-4,4c-0.003,0.356-0.037,0.994,0.37,1.749c0.617,1.112,1.94,1.751,3.63,1.751
		s3.013-0.639,3.63-1.752C36.021,56.04,36.007,55.351,36,55C36,53.365,34.575,51,32,51z M33.88,55.778
		C33.509,56.448,32.348,56.5,32,56.5s-1.509-0.052-1.88-0.721C29.969,55.497,30,55,30,55c0-0.569,0.595-2,2-2s2,1.431,2.001,2.099
		C34.006,55.286,34.011,55.543,33.88,55.778z"></path><circle cx="51.5" cy="27.8" r="1.5" fill="#211f1b"></circle><circle cx="45.5" cy="29.1" r="1.5" fill="#211f1b"></circle><circle cx="39.5" cy="30.1" r="1.5" fill="#211f1b"></circle><circle cx="27" cy="51" r="1.5" fill="#211f1b"></circle><circle cx="30" cy="48.5" r="1.5" fill="#211f1b"></circle><circle cx="37" cy="51" r="1.5" fill="#211f1b"></circle><circle cx="34" cy="48.5" r="1.5" fill="#211f1b"></circle></g></svg>